<?xml version="1.0" encoding="UTF-8" standalone="no"?>
<!-- Created with Inkscape (http://www.inkscape.org/) -->

<svg
   width="210mm"
   height="297mm"
   viewBox="0 0 210 297"
   version="1.1"
   id="svg5"
   xml:space="preserve"
   inkscape:export-filename="bitmap.svg"
   inkscape:export-xdpi="96"
   inkscape:export-ydpi="96"
   sodipodi:docname="bitmap.svg"
   inkscape:version="1.2 (dc2aedaf03, 2022-05-15)"
   xmlns:inkscape="http://www.inkscape.org/namespaces/inkscape"
   xmlns:sodipodi="http://sodipodi.sourceforge.net/DTD/sodipodi-0.dtd"
   xmlns="http://www.w3.org/2000/svg"
   xmlns:svg="http://www.w3.org/2000/svg"><sodipodi:namedview
     id="namedview7"
     pagecolor="#505050"
     bordercolor="#ffffff"
     borderopacity="1"
     inkscape:showpageshadow="0"
     inkscape:pageopacity="0"
     inkscape:pagecheckerboard="1"
     inkscape:deskcolor="#505050"
     inkscape:document-units="mm"
     showgrid="false"
     inkscape:zoom="0.76078844"
     inkscape:cx="273.40058"
     inkscape:cy="571.77525"
     inkscape:window-width="1920"
     inkscape:window-height="1009"
     inkscape:window-x="1072"
     inkscape:window-y="476"
     inkscape:window-maximized="1"
     inkscape:current-layer="layer1" /><defs
     id="defs2" /><g
     inkscape:label="Layer 1"
     inkscape:groupmode="layer"
     id="layer1"><g
       id="g245"><g
         style="fill:#373c45"
         id="g212"
         transform="matrix(9.2585683,0,0,12.366809,-9.4535178,0.66640612)"><path
           d="M 15.25,0 A 8.25,8.25 0 0 0 9.07,13.72 L 1,22.88 l 1.12,1 8.05,-9.12 A 8.251,8.251 0 1 0 15.25,0.01 Z m 0,15 a 6.75,6.75 0 1 1 0,-13.5 6.75,6.75 0 0 1 0,13.5 z"
           id="path203"
           style="fill:#373c45" /></g><g
         style="fill:#373c45"
         id="g239"
         transform="matrix(10.556813,0,0,14.574266,47.297066,-12.388482)"><path
           fill-rule="evenodd"
           clip-rule="evenodd"
           d="m 8.6,1 c 1.6,0.1 3.1,0.9 4.2,2 1.3,1.4 2,3.1 2,5.1 0,1.6 -0.6,3.1 -1.6,4.4 -1,1.2 -2.4,2.1 -4,2.4 C 7.6,15.2 6,15 4.6,14.2 3.2,13.4 2.1,12.2 1.5,10.7 0.9,9.2 0.8,7.5 1.3,6 1.8,4.4 2.7,3.1 4.1,2.2 5.4,1.3 7,0.9 8.6,1 Z m 0.5,12.9 c 1.3,-0.3 2.5,-1 3.4,-2.1 C 13.3,10.7 13.8,9.4 13.7,8 13.7,6.4 13.1,4.8 12,3.7 11,2.7 9.8,2.1 8.4,2 7.1,1.9 5.7,2.2 4.6,3 3.5,3.8 2.7,4.9 2.3,6.3 1.9,7.6 1.9,9 2.5,10.3 c 0.6,1.3 1.5,2.3 2.7,3 1.2,0.7 2.6,0.9 3.9,0.6 z M 7.9,7.5 10.3,5 11,5.7 8.6,8.2 11,10.7 10.3,11.4 7.9,8.9 5.5,11.4 4.8,10.7 7.2,8.2 4.8,5.7 5.5,5 Z"
           id="path230"
           style="fill:#373c45" /></g></g></g></svg>
